<?xml version="1.0" standalone="no"?>
<!DOCTYPE svg PUBLIC "-//W3C//DTD SVG 20010904//EN"
 "http://www.w3.org/TR/2001/REC-SVG-20010904/DTD/svg10.dtd">
<svg version="1.0" xmlns="http://www.w3.org/2000/svg"
 width="4000.000000pt" height="4000.000000pt" viewBox="0 0 4000.000000 4000.000000"
 preserveAspectRatio="xMidYMid meet">

<g transform="translate(0.000000,4000.000000) scale(0.100000,-0.100000)"
fill="#006C9B" stroke="none">
<path d="M19830 33424 c-30 -2 -89 -8 -130 -14 -41 -6 -172 -14 -290 -20 -118
-5 -228 -13 -245 -19 -16 -6 -96 -15 -176 -20 -81 -5 -156 -14 -166 -20 -11
-5 -69 -13 -129 -16 -60 -4 -131 -13 -159 -20 -27 -7 -88 -16 -135 -20 -47 -4
-99 -13 -116 -20 -17 -7 -69 -16 -115 -20 -46 -4 -100 -13 -119 -20 -19 -7
-66 -16 -104 -20 -38 -3 -80 -12 -95 -19 -14 -7 -56 -16 -93 -19 -38 -4 -78
-11 -89 -18 -12 -6 -53 -15 -92 -20 -38 -5 -76 -14 -83 -20 -7 -6 -44 -15 -81
-19 -38 -5 -82 -16 -98 -24 -17 -9 -47 -16 -68 -16 -21 0 -55 -9 -77 -20 -22
-11 -56 -20 -77 -20 -21 0 -51 -7 -68 -16 -16 -8 -50 -18 -75 -21 -25 -3 -61
-14 -80 -25 -19 -10 -51 -18 -70 -18 -20 0 -45 -7 -57 -15 -11 -8 -40 -17 -64
-21 -24 -3 -54 -12 -66 -20 -12 -7 -41 -16 -65 -20 -24 -3 -52 -12 -63 -19
-11 -7 -39 -16 -62 -19 -23 -4 -49 -14 -60 -21 -10 -8 -29 -15 -43 -15 -14 0
-43 -9 -65 -20 -22 -11 -48 -20 -60 -20 -11 0 -37 -9 -58 -20 -20 -11 -47 -20
-59 -20 -13 0 -38 -9 -56 -20 -18 -11 -42 -20 -55 -20 -12 0 -35 -9 -52 -20
-16 -11 -41 -20 -55 -20 -14 0 -38 -9 -55 -20 -16 -11 -38 -20 -48 -20 -9 0
-34 -9 -54 -20 -21 -11 -47 -20 -58 -20 -11 0 -33 -9 -50 -20 -16 -11 -40 -20
-51 -20 -12 0 -27 -6 -33 -14 -7 -8 -27 -18 -44 -21 -18 -4 -41 -13 -53 -20
-11 -7 -40 -18 -62 -25 -23 -6 -42 -15 -42 -20 0 -6 -10 -10 -22 -10 -13 0
-38 -9 -56 -20 -18 -11 -39 -20 -46 -20 -7 0 -24 -8 -37 -19 -13 -10 -40 -21
-60 -25 -21 -4 -42 -13 -49 -21 -7 -8 -20 -15 -30 -15 -9 0 -29 -9 -43 -20
-14 -11 -34 -20 -45 -20 -10 0 -31 -9 -45 -20 -14 -11 -34 -20 -45 -20 -10 0
-27 -9 -37 -20 -10 -11 -27 -20 -37 -20 -11 0 -31 -9 -45 -20 -14 -11 -32 -20
-40 -20 -8 0 -26 -9 -40 -20 -14 -11 -33 -20 -43 -20 -9 0 -27 -9 -40 -20 -13
-11 -31 -20 -40 -20 -10 0 -23 -6 -29 -14 -7 -8 -25 -18 -41 -21 -16 -3 -34
-13 -41 -21 -6 -8 -20 -14 -30 -14 -11 0 -28 -9 -39 -20 -11 -11 -28 -20 -38
-20 -11 0 -27 -9 -37 -20 -10 -11 -26 -20 -35 -20 -9 0 -25 -9 -35 -20 -10
-11 -26 -20 -35 -20 -10 0 -28 -8 -41 -19 -13 -10 -34 -21 -46 -25 -11 -4 -24
-13 -27 -21 -3 -8 -14 -15 -24 -15 -11 0 -31 -9 -45 -20 -14 -11 -31 -20 -39
-20 -7 0 -21 -9 -31 -20 -9 -11 -26 -20 -37 -20 -11 0 -23 -7 -26 -15 -3 -8
-21 -19 -40 -25 -19 -6 -34 -15 -34 -20 0 -4 -12 -13 -27 -19 -54 -23 -103
-51 -103 -60 0 -5 -14 -12 -31 -16 -17 -4 -33 -13 -36 -21 -3 -8 -11 -14 -19
-14 -8 0 -22 -9 -31 -20 -10 -11 -25 -20 -34 -20 -9 0 -24 -9 -34 -20 -10 -11
-23 -20 -30 -20 -7 0 -20 -9 -30 -20 -10 -11 -26 -20 -36 -20 -10 0 -22 -6
-26 -12 -11 -18 -67 -56 -98 -68 -14 -5 -25 -14 -25 -19 0 -5 -13 -14 -30 -20
-16 -5 -30 -14 -30 -20 0 -5 -13 -14 -30 -20 -16 -5 -30 -14 -30 -19 0 -5 -10
-14 -22 -21 -26 -13 -56 -32 -122 -78 -26 -18 -49 -33 -52 -33 -6 0 -109 -80
-135 -105 -9 -8 -20 -15 -26 -15 -5 0 -18 -9 -28 -20 -10 -11 -22 -20 -27 -20
-9 0 -78 -52 -152 -113 -21 -18 -49 -38 -62 -45 -13 -7 -24 -17 -24 -22 0 -6
-7 -10 -15 -10 -8 0 -20 -9 -27 -20 -7 -11 -17 -20 -22 -20 -4 0 -30 -18 -56
-40 -26 -22 -53 -40 -58 -40 -6 0 -15 -6 -19 -14 -4 -8 -46 -45 -93 -83 -89
-71 -110 -88 -138 -113 -9 -8 -62 -52 -117 -97 -55 -45 -118 -98 -140 -119
-22 -21 -83 -76 -135 -123 -52 -47 -102 -92 -111 -100 -9 -9 -81 -77 -159
-151 -203 -192 -321 -312 -525 -531 -199 -213 -324 -352 -382 -425 -27 -34
-55 -68 -63 -77 -8 -8 -31 -34 -50 -58 -19 -23 -45 -54 -57 -67 -13 -14 -23
-28 -23 -31 0 -6 -55 -70 -98 -116 -11 -11 -45 -55 -76 -98 -31 -43 -64 -85
-74 -95 -9 -10 -30 -38 -47 -62 -16 -25 -36 -53 -45 -62 -43 -48 -90 -113 -90
-125 0 -4 -7 -13 -15 -22 -45 -50 -55 -62 -66 -82 -6 -13 -16 -28 -20 -33 -5
-6 -20 -25 -34 -42 -14 -18 -25 -37 -25 -43 0 -6 -4 -11 -9 -11 -5 0 -14 -13
-21 -30 -7 -16 -16 -30 -20 -30 -7 0 -70 -93 -70 -104 0 -3 -8 -14 -17 -24
-10 -10 -24 -27 -30 -38 -7 -10 -23 -35 -36 -54 -13 -19 -26 -43 -30 -52 -3
-10 -11 -18 -16 -18 -5 0 -13 -10 -17 -22 -3 -13 -13 -31 -22 -41 -18 -21 -37
-52 -54 -89 -7 -16 -16 -28 -19 -28 -6 0 -36 -48 -99 -158 -9 -15 -28 -46 -43
-70 -15 -24 -32 -54 -37 -67 -5 -14 -14 -25 -19 -25 -5 0 -15 -16 -21 -35 -6
-19 -15 -35 -20 -35 -4 0 -13 -12 -20 -27 -14 -34 -39 -80 -63 -113 -9 -13
-17 -30 -17 -37 0 -7 -9 -22 -20 -33 -11 -11 -20 -28 -20 -38 0 -10 -9 -25
-20 -35 -11 -9 -20 -24 -20 -33 0 -9 -9 -27 -20 -41 -11 -14 -20 -31 -20 -38
0 -7 -6 -18 -14 -24 -8 -7 -18 -26 -21 -42 -4 -16 -10 -29 -15 -29 -5 0 -14
-15 -20 -34 -6 -19 -18 -40 -26 -46 -7 -7 -14 -20 -14 -30 0 -9 -9 -27 -20
-40 -11 -13 -20 -30 -20 -37 0 -8 -9 -26 -20 -40 -11 -14 -20 -32 -20 -40 0
-8 -9 -26 -20 -40 -11 -14 -20 -34 -20 -43 0 -10 -6 -23 -14 -29 -8 -7 -18
-27 -22 -44 -3 -18 -15 -43 -25 -56 -11 -13 -19 -32 -19 -41 0 -10 -6 -23 -14
-29 -8 -7 -18 -27 -22 -44 -3 -18 -15 -43 -25 -56 -11 -13 -19 -32 -19 -41 0
-10 -6 -23 -14 -29 -8 -7 -18 -27 -21 -44 -4 -18 -13 -39 -20 -47 -7 -8 -15
-28 -19 -44 -4 -15 -14 -35 -21 -43 -8 -8 -15 -23 -15 -34 0 -11 -9 -38 -20
-60 -11 -21 -29 -57 -40 -78 -11 -22 -20 -50 -20 -61 0 -12 -9 -33 -20 -47
-11 -14 -20 -35 -20 -47 0 -11 -9 -34 -20 -51 -11 -16 -20 -41 -20 -53 0 -13
-9 -35 -20 -49 -11 -14 -20 -37 -20 -51 0 -14 -7 -33 -15 -42 -9 -10 -19 -35
-22 -56 -3 -22 -12 -46 -19 -55 -8 -8 -17 -30 -20 -48 -4 -18 -15 -49 -25 -69
-11 -20 -19 -48 -19 -63 0 -15 -6 -32 -14 -38 -8 -7 -17 -27 -20 -46 -4 -19
-13 -47 -21 -62 -8 -15 -15 -39 -15 -52 0 -13 -8 -42 -19 -65 -26 -60 -52
-135 -60 -181 -4 -22 -15 -54 -24 -72 -9 -18 -17 -43 -17 -58 0 -14 -9 -42
-20 -62 -11 -21 -20 -52 -20 -70 0 -18 -9 -50 -20 -70 -11 -21 -20 -54 -20
-73 0 -20 -7 -46 -16 -58 -8 -12 -18 -48 -21 -80 -3 -31 -12 -64 -20 -73 -7
-9 -16 -40 -20 -70 -3 -30 -11 -65 -18 -79 -7 -14 -16 -52 -20 -85 -4 -33 -13
-71 -20 -85 -7 -14 -16 -52 -20 -85 -4 -33 -12 -69 -17 -79 -6 -10 -14 -51
-19 -90 -5 -38 -15 -88 -23 -111 -8 -22 -18 -69 -21 -105 -4 -35 -11 -72 -16
-83 -6 -10 -14 -56 -19 -102 -5 -46 -16 -104 -24 -129 -9 -26 -16 -70 -16 -99
0 -29 -9 -88 -20 -132 -11 -44 -20 -110 -20 -146 0 -36 -7 -88 -15 -115 -9
-27 -20 -112 -25 -189 -5 -77 -14 -156 -20 -175 -6 -19 -15 -118 -20 -220 -6
-102 -15 -205 -20 -230 -27 -117 -27 -1723 0 -1855 6 -27 14 -134 20 -236 5
-102 14 -198 20 -213 6 -16 15 -92 20 -170 6 -77 17 -163 25 -190 8 -27 15
-79 15 -115 0 -36 9 -102 20 -146 11 -44 20 -103 20 -131 0 -28 9 -80 20 -114
11 -34 20 -86 20 -114 1 -28 7 -69 15 -91 8 -22 18 -69 21 -105 4 -36 13 -80
20 -99 8 -19 17 -59 20 -90 3 -31 11 -74 19 -96 7 -22 16 -65 20 -96 3 -30 12
-67 19 -81 7 -14 17 -52 21 -84 4 -32 13 -70 20 -84 8 -14 17 -51 20 -82 3
-31 13 -62 21 -69 8 -6 14 -29 14 -53 0 -22 9 -61 20 -85 11 -24 20 -57 20
-75 0 -17 8 -47 18 -66 11 -19 22 -57 25 -83 4 -27 14 -58 22 -70 8 -12 15
-34 15 -50 0 -15 9 -45 20 -67 11 -22 20 -51 20 -65 0 -14 9 -42 20 -62 11
-21 20 -48 20 -60 0 -13 9 -40 20 -60 11 -21 20 -48 20 -61 0 -13 6 -35 14
-50 8 -15 17 -44 21 -64 4 -21 13 -42 21 -49 8 -6 14 -23 14 -38 0 -15 9 -44
20 -66 11 -22 20 -48 20 -60 0 -11 8 -34 18 -50 11 -17 22 -47 26 -67 3 -20
13 -41 21 -48 8 -7 15 -24 15 -39 0 -14 9 -39 20 -56 11 -16 20 -39 20 -50 0
-11 9 -33 20 -50 11 -16 20 -40 20 -51 0 -12 9 -33 20 -47 11 -14 20 -36 20
-49 0 -12 9 -36 20 -53 11 -16 20 -38 20 -48 0 -11 9 -30 20 -44 11 -14 20
-34 20 -44 0 -10 9 -33 20 -51 11 -18 20 -41 20 -50 0 -9 6 -23 14 -30 7 -8
17 -28 20 -45 4 -18 14 -37 22 -44 8 -6 14 -19 14 -29 0 -9 9 -29 20 -43 11
-14 20 -34 20 -45 0 -10 8 -30 18 -43 11 -13 22 -36 25 -51 4 -15 14 -33 22
-42 8 -8 15 -23 15 -34 0 -11 9 -31 20 -45 11 -14 20 -32 20 -40 0 -8 9 -26
20 -40 11 -14 20 -32 20 -40 0 -8 9 -26 20 -40 11 -14 20 -32 20 -40 0 -7 9
-24 20 -37 11 -13 20 -31 20 -40 0 -10 7 -23 14 -30 8 -6 20 -27 26 -46 6 -19
15 -34 20 -34 5 0 11 -13 15 -29 3 -16 13 -35 21 -42 8 -6 14 -17 14 -24 0 -7
9 -24 20 -38 11 -14 20 -32 20 -41 0 -9 9 -25 20 -36 11 -11 20 -26 20 -34 0
-7 8 -24 18 -37 10 -13 23 -35 30 -49 7 -14 23 -43 37 -65 13 -22 29 -52 36
-67 6 -16 15 -28 19 -28 5 0 14 -15 20 -34 6 -19 17 -37 25 -40 8 -3 15 -12
15 -21 0 -8 16 -38 35 -65 19 -27 35 -53 35 -57 0 -5 18 -34 40 -66 22 -31 40
-62 40 -67 0 -6 8 -18 18 -28 9 -9 23 -28 30 -42 22 -43 38 -69 53 -87 9 -10
20 -30 27 -45 6 -16 16 -28 22 -28 5 0 10 -4 10 -10 0 -11 43 -78 65 -101 8
-9 15 -18 15 -22 0 -7 89 -140 98 -147 4 -3 13 -17 21 -32 8 -16 18 -28 23
-28 4 0 8 -6 8 -14 0 -11 15 -32 64 -86 7 -8 16 -25 20 -37 4 -11 13 -24 21
-27 8 -3 15 -12 15 -20 0 -9 9 -20 20 -26 11 -6 20 -15 20 -20 0 -14 49 -84
66 -93 8 -4 14 -14 14 -22 0 -8 6 -18 13 -22 6 -4 25 -28 42 -53 16 -25 36
-52 45 -62 8 -9 24 -28 35 -42 11 -15 25 -32 30 -39 6 -6 23 -30 39 -52 16
-22 38 -50 50 -62 40 -42 90 -104 116 -144 8 -12 33 -42 55 -66 54 -58 62 -68
120 -138 65 -79 72 -87 120 -139 43 -46 149 -164 234 -259 175 -196 523 -542
716 -712 38 -33 88 -78 111 -100 24 -22 71 -65 105 -95 34 -30 71 -64 82 -74
11 -11 46 -40 76 -64 55 -44 67 -55 113 -98 13 -12 70 -58 128 -104 58 -45
109 -88 113 -96 4 -8 13 -14 19 -14 6 0 18 -7 27 -15 13 -13 115 -92 259 -202
13 -10 34 -28 48 -40 14 -13 29 -23 35 -23 5 0 18 -8 28 -18 34 -30 55 -47 72
-57 42 -25 128 -87 139 -100 7 -8 18 -15 25 -15 6 0 20 -9 30 -20 10 -11 24
-20 31 -20 7 0 17 -6 21 -13 11 -16 86 -67 100 -67 6 0 13 -4 15 -9 4 -12 192
-138 218 -146 11 -3 20 -10 20 -15 0 -9 28 -26 88 -55 17 -8 32 -20 32 -25 0
-5 11 -12 24 -16 14 -3 32 -14 42 -25 9 -10 25 -19 34 -19 9 0 25 -9 35 -20
10 -11 23 -20 30 -20 7 0 20 -9 30 -20 10 -11 26 -20 35 -20 10 0 24 -7 31
-16 7 -9 22 -20 34 -26 11 -5 38 -20 60 -33 22 -14 54 -32 70 -40 17 -9 48
-27 70 -40 22 -13 54 -30 71 -38 17 -8 35 -20 38 -26 4 -6 15 -11 25 -11 10 0
26 -9 36 -20 10 -11 25 -20 32 -20 8 0 26 -9 40 -20 14 -11 33 -20 43 -20 9 0
25 -9 35 -20 10 -11 25 -20 32 -20 8 0 26 -9 40 -20 14 -11 34 -20 44 -20 10
0 21 -4 24 -10 3 -5 36 -24 73 -41 37 -17 74 -36 82 -40 8 -5 29 -16 45 -25
17 -8 41 -22 55 -29 14 -8 33 -15 42 -15 9 0 19 -4 22 -9 3 -4 32 -21 63 -36
32 -15 75 -35 95 -46 20 -10 43 -19 51 -19 8 0 24 -9 37 -20 13 -11 31 -20 41
-20 10 0 52 -18 94 -40 42 -22 84 -40 94 -40 10 0 24 -7 31 -15 7 -8 27 -17
46 -21 18 -3 38 -12 45 -20 6 -7 27 -16 48 -20 20 -4 43 -12 51 -19 8 -8 27
-17 43 -20 15 -4 44 -16 64 -26 21 -10 47 -19 59 -19 12 0 27 -7 34 -15 7 -8
20 -15 29 -15 9 0 33 -9 54 -20 20 -11 45 -20 55 -20 9 0 34 -9 55 -20 20 -11
44 -20 52 -20 8 0 32 -9 52 -20 21 -11 47 -20 58 -20 11 0 37 -9 58 -20 20
-11 44 -20 52 -20 8 0 32 -9 52 -20 21 -11 49 -20 63 -20 14 -1 43 -9 65 -20
22 -11 47 -19 55 -20 9 0 33 -9 55 -20 22 -11 53 -20 70 -20 17 0 40 -6 51
-14 11 -8 38 -18 60 -22 21 -3 52 -13 67 -21 16 -8 50 -18 75 -23 44 -8 109
-27 177 -52 17 -6 57 -16 90 -23 33 -6 71 -16 85 -22 14 -6 44 -14 68 -18 24
-4 56 -13 70 -21 15 -8 42 -14 60 -14 18 0 58 -9 89 -20 32 -11 69 -20 83 -20
14 0 51 -9 83 -20 31 -11 71 -20 90 -20 18 0 58 -9 90 -20 31 -11 72 -20 90
-20 19 0 54 -7 78 -15 24 -9 80 -20 124 -25 44 -5 105 -16 135 -25 30 -8 73
-15 95 -15 22 0 58 -7 81 -14 22 -8 81 -18 130 -21 49 -4 114 -13 144 -21 30
-7 102 -18 160 -24 58 -5 122 -14 144 -19 21 -5 93 -12 160 -16 66 -4 141 -11
166 -16 25 -5 144 -16 265 -24 121 -8 267 -19 325 -25 133 -12 1222 -12 1355
0 55 5 190 14 300 20 110 6 241 17 290 25 50 8 137 17 195 20 58 3 139 12 180
20 41 7 115 16 163 20 49 3 101 11 115 16 15 6 70 15 122 20 52 5 118 16 145
23 28 8 82 17 121 20 39 3 90 13 114 21 23 8 59 15 79 15 20 0 61 7 91 15 30
9 84 20 120 25 36 5 85 16 109 24 24 9 55 16 70 16 14 0 55 8 91 19 36 11 88
24 115 29 28 6 69 15 93 21 23 6 61 16 85 22 23 6 71 17 107 25 35 8 69 19 75
23 5 5 32 12 60 16 27 4 62 13 76 21 15 7 46 16 70 20 24 4 55 12 69 19 14 7
46 15 71 19 26 4 55 13 65 21 11 8 30 15 44 15 14 0 45 9 69 20 24 11 53 20
65 20 12 0 38 9 59 20 20 11 47 20 60 20 12 0 40 9 62 20 22 11 48 20 60 20
11 0 37 9 58 20 20 11 45 20 55 20 9 0 34 9 55 20 20 11 47 20 59 20 13 0 37
9 53 20 17 11 38 20 48 20 9 0 34 9 54 20 21 11 46 20 55 20 10 0 35 9 55 20
21 11 45 20 53 20 9 0 25 7 36 15 10 8 26 15 34 15 9 0 33 9 55 20 22 11 44
20 50 20 6 0 26 8 45 19 19 10 49 21 67 25 17 4 37 13 43 21 6 7 26 16 44 19
19 4 39 13 46 21 7 8 23 15 35 15 12 0 34 9 48 20 14 11 34 20 45 20 10 0 31
9 45 20 14 11 33 20 42 20 9 0 28 9 42 20 14 11 33 20 42 20 9 0 25 6 36 14
11 7 37 19 58 25 20 7 37 17 37 22 0 5 5 9 12 9 12 0 112 44 138 60 8 6 26 15
40 20 14 6 32 15 40 20 8 6 26 15 40 20 14 6 32 14 40 20 8 5 29 16 45 25 17
8 37 19 45 24 8 5 26 14 40 20 14 7 61 31 105 55 44 24 107 58 140 76 33 18
78 43 100 56 22 13 54 30 70 39 17 8 48 26 70 39 22 14 55 31 73 40 17 8 32
20 32 25 0 6 9 11 20 11 11 0 28 8 38 18 9 9 28 23 42 30 64 34 86 46 98 59 7
7 18 13 24 13 6 0 20 7 30 17 21 19 49 36 96 58 17 8 32 19 32 24 0 4 11 13
26 19 41 19 214 135 214 144 0 4 5 8 11 8 16 0 109 62 109 72 0 4 6 8 14 8 8
0 36 17 63 38 67 51 111 82 118 82 3 0 28 17 55 38 27 20 86 64 130 97 45 33
126 95 181 137 54 43 101 78 104 78 3 0 22 16 42 35 20 19 59 50 87 69 28 19
64 46 80 61 16 15 75 64 130 108 56 45 117 97 136 116 19 18 90 80 157 138
160 136 262 233 583 553 287 287 477 486 564 593 30 37 61 73 68 81 60 61 174
195 281 330 70 89 133 168 141 176 12 13 61 76 124 158 9 13 25 31 35 40 9 9
17 21 17 28 0 6 9 19 20 29 11 10 20 24 20 31 0 7 9 18 20 24 11 6 20 17 20
25 0 8 4 15 8 15 5 0 24 24 42 52 18 29 40 60 47 68 32 34 253 358 253 370 0
5 6 13 13 17 14 9 60 78 70 106 3 9 11 17 16 17 5 0 12 9 16 20 3 11 40 70 81
132 41 61 74 117 74 124 0 6 7 17 16 24 8 8 22 27 30 44 7 17 23 45 34 61 11
17 25 41 32 55 6 14 18 33 26 42 15 18 29 43 77 135 17 32 33 60 37 63 4 3 14
21 23 40 9 19 27 53 40 75 14 22 41 72 61 110 20 39 62 120 95 180 32 61 63
121 70 135 6 14 15 32 20 40 5 8 14 26 19 40 6 14 15 32 20 40 6 8 15 26 20
40 14 32 51 110 62 130 8 15 13 26 51 110 11 25 24 52 29 60 4 8 13 26 18 40
6 14 18 41 27 60 8 19 25 55 36 80 10 25 28 62 38 82 11 20 19 44 19 53 0 9 9
33 19 53 35 67 61 129 61 143 0 8 9 28 20 44 11 17 20 40 20 52 0 12 4 25 10
28 5 3 16 27 24 53 8 26 21 61 30 77 9 17 16 37 16 45 0 9 9 33 20 55 11 22
20 46 20 55 0 8 7 23 15 33 7 11 17 38 21 60 3 23 13 51 20 62 8 11 14 28 14
39 0 10 8 37 19 60 25 57 51 133 62 184 5 24 15 53 24 65 8 12 15 33 15 47 1
14 9 43 20 65 11 22 19 51 20 65 0 14 9 43 20 65 11 22 20 51 20 66 0 15 9 46
20 70 11 24 20 58 20 74 0 17 7 40 15 52 8 12 18 43 22 70 3 26 11 59 18 73 7
14 16 48 20 75 4 28 13 64 20 80 7 17 17 52 21 80 4 27 13 63 19 80 7 16 16
57 20 90 4 33 11 65 17 72 5 6 14 42 19 79 5 37 16 87 24 111 8 24 15 61 15
82 0 21 9 67 20 101 11 34 20 79 20 99 0 20 9 68 20 106 11 38 20 95 20 125 1
30 8 73 16 95 8 22 18 85 23 140 5 55 14 113 21 130 6 16 14 77 17 135 3 58
12 132 20 164 8 32 18 122 23 200 5 78 14 166 20 196 5 30 15 165 20 300 6
135 15 272 20 305 12 83 12 1044 0 1130 -6 39 -15 180 -20 315 -6 135 -16 286
-24 335 -8 50 -17 143 -20 207 -3 64 -11 129 -17 145 -6 15 -15 84 -20 153 -5
69 -13 141 -19 160 -6 19 -15 79 -20 132 -5 54 -14 107 -21 119 -6 12 -15 65
-20 118 -5 53 -15 114 -23 136 -8 22 -15 59 -16 81 0 23 -9 70 -20 104 -11 34
-20 80 -20 101 0 21 -6 58 -14 81 -8 24 -18 68 -22 98 -3 30 -13 69 -20 85 -7
17 -18 60 -23 96 -5 37 -14 75 -19 85 -5 11 -13 42 -17 70 -3 28 -12 63 -20
77 -7 14 -16 49 -20 79 -4 29 -13 64 -20 78 -7 14 -15 45 -19 69 -4 24 -13 56
-21 72 -8 15 -15 41 -15 56 0 15 -9 48 -20 72 -11 24 -20 55 -20 70 0 15 -9
44 -20 66 -11 22 -20 51 -20 65 0 14 -9 45 -20 69 -11 24 -20 52 -20 62 0 11
-9 37 -20 59 -11 22 -20 50 -20 62 0 13 -9 40 -20 61 -11 20 -20 47 -20 59 0
13 -9 37 -20 53 -11 17 -20 42 -20 58 0 15 -9 44 -20 64 -11 21 -20 47 -20 59
0 12 -7 27 -15 34 -8 7 -15 22 -15 34 0 12 -8 38 -19 59 -10 20 -22 52 -25 71
-4 19 -13 39 -21 46 -8 7 -15 22 -15 34 0 12 -9 39 -20 61 -11 22 -20 46 -20
55 0 8 -9 29 -20 45 -11 17 -20 38 -20 48 0 10 -9 36 -20 58 -11 21 -29 57
-40 78 -11 22 -20 47 -20 56 0 9 -8 33 -19 53 -10 20 -28 57 -39 82 -11 25
-29 66 -41 91 -12 25 -21 51 -21 56 0 6 -6 16 -14 22 -8 7 -18 27 -21 44 -4
18 -13 39 -20 47 -7 8 -16 26 -20 40 -4 14 -13 32 -20 40 -7 8 -16 29 -20 47
-3 17 -12 37 -20 43 -8 6 -17 24 -20 40 -3 16 -13 34 -21 41 -8 6 -14 19 -14
29 0 9 -9 29 -20 43 -11 14 -20 32 -20 40 0 8 -9 26 -20 40 -11 14 -20 31 -20
39 0 7 -7 24 -17 37 -9 13 -39 67 -66 120 -60 115 -81 153 -112 206 -13 22
-31 56 -40 75 -9 19 -19 37 -23 40 -4 3 -13 16 -20 30 -17 32 -46 84 -77 135
-13 22 -31 54 -39 70 -9 17 -25 44 -36 60 -11 17 -27 45 -35 63 -8 17 -19 32
-24 32 -6 0 -13 10 -17 22 -3 11 -24 46 -45 77 -22 31 -39 61 -39 68 0 7 -6
16 -13 20 -7 4 -18 19 -25 33 -14 28 -31 55 -79 124 -18 26 -33 51 -33 55 0 4
-9 16 -20 26 -11 10 -20 22 -20 26 0 5 -14 28 -30 51 -17 24 -38 54 -48 68 -9
14 -22 31 -29 38 -7 7 -13 20 -13 27 0 8 -6 18 -13 22 -7 4 -35 42 -62 83 -27
41 -55 80 -60 85 -6 6 -24 30 -41 55 -27 41 -41 59 -79 101 -8 9 -15 19 -15
23 0 7 -25 41 -63 86 -23 27 -62 78 -77 100 -16 24 -56 76 -78 100 -7 8 -40
51 -73 95 -34 44 -68 85 -75 91 -7 6 -36 40 -64 75 -80 102 -112 140 -157 189
-55 59 -60 64 -119 134 -130 158 -480 517 -831 856 -192 186 -220 211 -298
273 -33 27 -86 73 -117 103 -32 30 -62 54 -68 54 -5 0 -10 4 -10 8 0 5 -35 36
-77 70 -43 33 -89 71 -103 84 -13 13 -51 44 -85 70 -33 26 -67 54 -76 63 -9 8
-21 15 -27 15 -6 0 -16 9 -22 20 -6 11 -15 20 -20 20 -6 0 -18 8 -29 18 -10 9
-31 26 -45 37 -31 23 -74 59 -96 78 -8 7 -39 29 -67 47 -29 18 -53 37 -53 42
0 4 -7 8 -15 8 -8 0 -20 9 -27 20 -7 11 -18 20 -24 20 -6 0 -19 9 -29 20 -10
11 -24 20 -31 20 -8 0 -19 9 -26 20 -7 11 -18 20 -24 20 -6 0 -19 9 -29 20
-10 11 -23 20 -30 20 -7 0 -20 9 -30 20 -10 11 -24 20 -32 20 -7 0 -13 4 -13
9 0 4 -27 25 -60 46 -33 21 -60 41 -60 46 0 4 -10 11 -22 15 -27 8 -80 44 -91
62 -4 6 -13 12 -19 12 -13 0 -91 51 -96 63 -2 4 -18 14 -35 23 -46 21 -74 38
-95 57 -10 10 -23 17 -29 17 -5 0 -20 9 -33 20 -13 11 -29 20 -37 20 -7 0 -13
5 -13 11 0 5 -15 17 -32 25 -50 24 -88 46 -142 83 -28 18 -59 37 -70 42 -12 5
-39 20 -61 34 -22 13 -52 29 -67 36 -16 6 -28 15 -28 19 0 5 -16 14 -35 20
-19 6 -35 15 -35 20 0 5 -15 14 -34 20 -19 6 -37 17 -40 25 -3 8 -14 15 -24
15 -11 0 -31 9 -45 20 -14 11 -30 20 -36 20 -7 0 -24 8 -39 18 -44 29 -66 42
-92 53 -14 6 -32 15 -40 20 -8 5 -29 16 -47 24 -17 8 -34 19 -37 24 -4 5 -19
12 -35 16 -16 3 -35 12 -41 20 -6 8 -24 17 -40 20 -16 3 -34 12 -40 20 -6 8
-24 17 -40 20 -16 3 -34 13 -41 21 -6 8 -19 14 -29 14 -9 0 -29 9 -43 20 -14
11 -33 20 -42 20 -9 0 -28 9 -42 20 -14 11 -32 20 -40 20 -8 0 -26 9 -40 20
-14 11 -35 20 -45 20 -11 0 -31 9 -45 20 -14 11 -32 20 -40 20 -8 0 -32 9 -54
20 -21 11 -57 29 -78 40 -22 11 -49 20 -59 20 -11 0 -25 7 -32 15 -7 8 -27 17
-46 21 -18 3 -38 12 -45 20 -6 7 -26 16 -45 20 -18 3 -38 12 -44 19 -6 8 -29
16 -50 20 -21 4 -44 13 -50 20 -6 7 -29 16 -50 20 -21 4 -44 13 -51 21 -6 8
-23 14 -38 14 -14 0 -39 9 -56 20 -16 11 -39 20 -50 20 -11 0 -33 9 -50 20
-16 11 -41 20 -55 20 -14 0 -38 9 -55 20 -16 11 -41 20 -55 20 -14 0 -38 9
-55 20 -16 11 -40 20 -53 20 -12 0 -39 9 -59 20 -21 11 -48 20 -60 20 -13 0
-40 9 -60 20 -21 11 -47 20 -58 20 -12 0 -38 9 -60 20 -22 11 -51 20 -65 20
-14 0 -33 7 -44 15 -10 8 -39 17 -65 21 -25 4 -55 13 -66 20 -11 6 -40 15 -65
19 -25 4 -50 11 -56 16 -6 5 -37 14 -69 20 -32 6 -68 16 -79 24 -12 7 -42 15
-69 19 -26 3 -61 12 -77 21 -16 8 -44 15 -63 15 -19 0 -54 9 -78 20 -24 11
-60 20 -79 20 -19 0 -48 7 -63 15 -16 8 -52 17 -80 21 -29 3 -78 14 -110 25
-31 10 -70 19 -87 19 -16 0 -47 7 -67 15 -21 8 -69 19 -108 24 -38 6 -95 17
-125 26 -30 8 -70 15 -90 15 -19 0 -53 7 -75 14 -22 8 -74 17 -115 21 -41 4
-93 13 -115 20 -22 7 -79 16 -125 20 -47 4 -93 12 -103 17 -10 5 -75 14 -145
19 -70 6 -140 15 -157 20 -16 5 -93 15 -170 20 -77 6 -156 15 -175 20 -19 5
-135 14 -257 19 -121 6 -243 15 -270 21 -45 10 -1269 21 -1403 13z m1240 -384
c541 -27 1057 -84 1570 -171 3589 -612 6764 -2751 8707 -5864 331 -531 641
-1124 890 -1700 1170 -2714 1362 -5782 540 -8635 -547 -1897 -1534 -3647
-2887 -5120 -180 -196 -589 -603 -785 -781 -1836 -1670 -4063 -2760 -6485
-3173 -1419 -242 -2931 -240 -4350 5 -1781 308 -3458 982 -4960 1993 -2375
1599 -4149 3941 -5034 6643 -350 1068 -544 2102 -618 3288 -17 263 -16 1158 0
1425 100 1617 458 3093 1097 4520 771 1722 1926 3266 3364 4499 2163 1854
4845 2924 7696 3070 232 12 1028 12 1255 1z"/>
<path d="M17860 29758 c-103 -7 -143 -14 -168 -28 -18 -11 -60 -27 -95 -36
-34 -8 -71 -24 -82 -34 -11 -10 -37 -25 -58 -34 -22 -9 -52 -27 -69 -41 -16
-14 -34 -25 -40 -25 -28 0 -213 -184 -244 -242 -8 -15 -20 -31 -28 -35 -15 -9
-106 -177 -106 -196 0 -7 -13 -39 -29 -72 -26 -53 -31 -80 -45 -237 -14 -158
-16 -679 -16 -5095 0 -4418 2 -4935 16 -5088 13 -138 20 -178 39 -215 13 -25
29 -62 35 -83 17 -55 77 -166 111 -204 16 -19 29 -37 29 -42 0 -5 27 -37 60
-71 33 -34 60 -66 60 -71 0 -4 8 -10 18 -13 10 -3 34 -21 54 -39 40 -35 149
-107 164 -107 5 0 29 -14 53 -30 24 -17 56 -30 70 -30 15 0 55 -14 91 -32 65
-31 66 -32 270 -38 284 -9 4936 -5 4985 5 22 4 58 17 80 30 22 12 64 28 93 34
30 6 68 22 85 35 18 13 43 27 57 31 14 4 38 18 53 31 16 13 32 24 37 24 8 0
75 52 120 93 39 36 140 148 140 156 0 5 15 28 34 50 19 23 38 51 42 64 4 12
15 33 26 46 10 13 26 49 34 79 9 30 24 69 35 86 11 20 24 77 33 158 14 113 16
659 15 5150 -1 5300 0 5213 -44 5298 -10 18 -26 57 -36 87 -10 30 -27 66 -37
81 -10 15 -25 42 -32 61 -7 18 -28 51 -47 73 -18 22 -33 43 -33 46 0 11 -132
145 -174 177 -61 47 -147 105 -155 105 -4 0 -27 13 -52 29 -24 16 -66 35 -94
42 -27 7 -70 22 -95 35 -39 20 -70 25 -224 34 -223 13 -4741 11 -4936 -2z
m4967 -168 c40 -5 90 -18 110 -29 21 -10 64 -24 95 -30 31 -7 62 -19 69 -28 7
-8 36 -26 64 -39 27 -13 66 -35 85 -49 53 -38 179 -164 195 -195 8 -15 21 -30
30 -34 9 -3 25 -26 36 -52 11 -25 31 -61 45 -81 13 -20 24 -45 24 -56 0 -11 9
-39 19 -61 38 -81 41 -113 41 -524 0 -447 -1 -454 -61 -466 -53 -10 -6435 -7
-6463 4 -48 18 -51 37 -54 315 -2 143 1 341 6 441 7 157 11 185 29 215 12 19
24 51 28 72 4 21 18 54 32 74 14 20 29 48 34 62 13 33 57 84 156 184 101 102
142 134 185 149 18 6 45 21 60 34 15 12 50 27 78 33 28 6 72 21 98 33 26 11
74 24 107 28 93 11 4868 11 4952 0z m799 -1844 c12 -17 14 -591 14 -4092 0
-3078 -3 -4079 -12 -4099 -7 -16 -24 -29 -47 -36 -25 -7 -1061 -9 -3253 -7
-2941 3 -3219 4 -3233 19 -9 9 -21 34 -25 55 -11 44 -12 8017 -2 8104 6 45 11
57 32 67 20 10 671 12 3268 10 3198 -2 3244 -2 3258 -21z m-7 -8433 c22 -18
22 -19 19 -403 l-3 -385 -26 -60 c-15 -33 -32 -79 -38 -102 -6 -23 -16 -45
-22 -48 -5 -4 -21 -31 -34 -61 -13 -30 -31 -57 -40 -60 -9 -4 -22 -19 -30 -34
-16 -31 -142 -157 -195 -195 -19 -14 -51 -32 -70 -41 -19 -9 -49 -26 -66 -39
-17 -13 -57 -28 -88 -34 -32 -6 -74 -20 -93 -32 -28 -18 -60 -23 -167 -31 -76
-5 -1163 -8 -2527 -6 l-2394 3 -72 33 c-39 17 -82 32 -95 32 -13 0 -39 9 -58
20 -19 10 -55 29 -80 41 -59 29 -94 57 -193 155 -91 91 -157 169 -157 187 0 7
-14 32 -30 57 -16 25 -30 54 -30 64 0 11 -12 44 -27 75 -24 51 -27 73 -35 231
-10 187 -6 594 6 622 4 9 15 19 24 21 10 3 1476 5 3258 6 3074 1 3243 0 3263
-16z"/>
<path d="M22537 28979 c-34 -13 -62 -29 -68 -42 -6 -12 -19 -31 -29 -42 -51
-59 -49 -167 5 -238 49 -65 106 -100 170 -105 70 -6 92 0 146 41 51 39 109
142 108 191 0 17 -17 60 -37 96 -31 53 -46 69 -86 89 -65 33 -136 36 -209 10z"/>
<path d="M20245 26281 c-33 -5 -94 -18 -135 -29 -41 -12 -116 -26 -165 -31
-50 -5 -111 -19 -137 -31 -26 -11 -73 -25 -104 -31 -32 -6 -78 -21 -103 -34
-25 -13 -65 -26 -88 -30 -24 -4 -59 -20 -79 -36 -20 -16 -44 -29 -53 -29 -9 0
-29 -8 -46 -17 -103 -57 -156 -85 -201 -108 -28 -13 -61 -36 -74 -50 -13 -14
-29 -25 -36 -25 -6 0 -17 -7 -24 -15 -7 -8 -49 -41 -94 -72 -74 -52 -134 -104
-237 -205 -21 -21 -42 -38 -47 -38 -5 0 -13 -9 -18 -20 -5 -10 -32 -45 -61
-77 -85 -94 -119 -136 -146 -178 -47 -71 -60 -90 -82 -115 -12 -14 -30 -44
-40 -68 -10 -23 -24 -47 -31 -53 -15 -12 -104 -189 -104 -206 0 -6 -11 -24
-24 -40 -13 -15 -29 -54 -35 -85 -7 -31 -21 -68 -32 -82 -11 -14 -27 -61 -36
-103 -8 -43 -22 -91 -30 -107 -8 -16 -23 -88 -34 -159 -10 -72 -27 -154 -36
-182 -16 -43 -18 -88 -18 -330 0 -260 2 -285 22 -355 12 -41 27 -120 33 -175
6 -58 19 -118 31 -144 11 -24 25 -69 29 -99 12 -71 19 -92 41 -120 10 -13 23
-49 30 -80 6 -31 22 -70 35 -85 13 -15 28 -45 34 -66 5 -21 18 -49 28 -62 10
-13 24 -40 32 -59 7 -19 23 -46 35 -60 12 -14 28 -41 35 -60 8 -19 24 -48 37
-65 13 -16 40 -50 59 -73 18 -24 34 -48 34 -52 0 -14 159 -199 241 -280 128
-127 311 -275 390 -315 16 -9 29 -20 29 -25 0 -6 24 -21 53 -34 28 -12 58 -30
65 -39 8 -9 30 -21 50 -28 20 -6 49 -20 64 -31 15 -10 46 -25 70 -34 23 -8 52
-23 63 -34 11 -11 45 -24 75 -31 30 -6 74 -22 98 -36 23 -13 70 -29 104 -34
34 -6 82 -19 107 -31 27 -12 83 -25 136 -30 50 -5 117 -16 150 -24 33 -9 80
-21 105 -27 25 -6 149 -10 275 -10 216 0 236 1 336 26 58 15 146 31 195 36 49
5 109 19 134 30 25 11 73 24 107 30 34 5 82 21 105 35 24 13 61 28 83 31 22 4
58 19 80 35 22 15 54 31 72 34 18 4 43 16 56 26 13 10 44 27 68 36 24 9 55 27
69 39 14 11 38 27 54 34 16 6 41 21 55 32 14 11 80 60 146 108 145 107 241
194 375 341 63 70 152 186 188 244 9 15 31 46 49 67 17 22 35 49 39 62 4 12
15 33 26 46 10 14 28 45 39 70 11 25 26 52 33 61 7 8 19 33 26 55 7 22 20 49
30 60 27 31 40 61 40 93 0 16 11 51 25 78 14 27 31 74 36 104 6 30 21 80 34
110 14 33 27 96 34 160 6 58 21 134 33 170 20 59 22 90 26 312 4 246 3 247
-27 370 -16 67 -33 157 -36 198 -4 41 -18 100 -30 130 -13 30 -28 80 -34 112
-5 31 -19 73 -30 94 -11 20 -25 61 -31 91 -6 29 -22 66 -35 81 -12 15 -27 44
-33 65 -6 21 -22 53 -35 70 -13 18 -29 49 -36 69 -7 20 -19 42 -27 49 -8 6
-23 32 -34 57 -12 25 -27 53 -35 61 -17 18 -71 91 -126 170 -105 149 -305 344
-493 481 -48 36 -102 77 -120 91 -17 14 -49 34 -71 44 -22 11 -53 29 -70 41
-16 12 -41 25 -55 29 -14 4 -39 17 -55 30 -17 12 -45 26 -63 30 -18 3 -45 17
-60 30 -16 13 -56 31 -90 39 -34 9 -76 25 -94 35 -18 10 -62 24 -98 31 -35 6
-81 20 -101 30 -21 11 -87 26 -155 34 -66 9 -148 25 -184 37 -57 19 -92 22
-290 24 -124 2 -252 0 -285 -4z m540 -221 c120 -6 176 -14 220 -29 33 -12 88
-26 122 -31 34 -6 90 -24 125 -40 35 -17 75 -30 89 -30 14 0 43 -13 64 -30 21
-16 46 -30 57 -30 25 0 196 -85 224 -111 11 -10 28 -19 37 -19 8 0 37 -18 62
-40 25 -22 51 -40 57 -40 6 0 25 -12 43 -27 19 -16 55 -44 81 -63 65 -48 112
-90 210 -190 137 -139 149 -153 185 -203 19 -26 49 -66 67 -88 17 -23 32 -45
32 -50 0 -4 13 -23 29 -41 16 -18 36 -51 45 -73 9 -21 21 -42 25 -45 15 -9 90
-161 102 -204 6 -22 20 -51 31 -62 10 -12 26 -48 34 -80 9 -32 25 -76 36 -98
11 -22 24 -71 30 -110 5 -39 19 -91 30 -116 16 -37 22 -87 34 -282 12 -203 12
-271 0 -476 -11 -182 -18 -247 -31 -272 -9 -17 -23 -70 -31 -117 -8 -47 -26
-106 -39 -132 -13 -25 -26 -65 -30 -89 -4 -23 -17 -55 -30 -70 -12 -15 -30
-52 -39 -83 -8 -31 -22 -62 -30 -68 -8 -7 -20 -29 -27 -49 -6 -20 -20 -46 -30
-57 -10 -11 -25 -37 -34 -58 -8 -21 -24 -46 -35 -57 -10 -10 -29 -38 -40 -60
-12 -23 -27 -43 -35 -46 -8 -3 -17 -14 -20 -25 -9 -29 -97 -134 -206 -246
-111 -115 -295 -270 -359 -303 -14 -7 -38 -25 -55 -40 -16 -15 -46 -33 -66
-39 -20 -6 -47 -23 -59 -36 -13 -14 -31 -25 -40 -25 -9 0 -36 -13 -61 -28 -24
-15 -64 -34 -89 -41 -25 -7 -54 -21 -66 -32 -11 -10 -44 -23 -72 -29 -29 -5
-80 -23 -115 -39 -34 -16 -86 -32 -115 -35 -30 -4 -77 -16 -105 -27 -137 -54
-887 -54 -1025 0 -26 10 -79 24 -118 30 -39 6 -91 22 -116 36 -25 14 -68 29
-97 35 -29 5 -64 19 -78 30 -14 11 -44 25 -67 31 -22 6 -58 21 -78 34 -20 13
-48 27 -62 31 -14 3 -36 16 -48 28 -13 12 -39 28 -58 36 -19 7 -50 26 -68 42
-18 15 -36 28 -41 28 -8 0 -31 16 -129 92 -145 112 -309 275 -414 414 -107
141 -134 181 -159 234 -12 25 -30 51 -40 57 -9 7 -24 34 -33 60 -9 25 -22 53
-30 62 -7 9 -19 34 -26 56 -7 22 -23 57 -36 77 -13 20 -26 56 -30 80 -3 24
-17 63 -31 88 -13 25 -31 81 -39 125 -8 44 -24 102 -35 128 -16 39 -22 91 -33
275 -17 304 -1 642 38 755 13 40 27 97 31 127 4 30 20 78 35 105 15 28 31 71
34 97 4 26 16 58 28 73 11 14 26 46 34 71 7 25 22 57 32 72 11 15 24 43 31 63
6 20 22 46 35 58 13 12 31 42 41 67 9 24 20 44 24 44 4 0 17 17 29 38 11 21
30 46 42 57 11 10 20 24 20 31 0 13 27 47 153 188 113 127 298 286 421 361 18
11 47 32 65 48 18 15 38 27 45 27 8 0 26 10 42 22 36 29 147 86 199 102 22 7
57 24 77 38 20 14 55 28 78 32 23 3 62 17 88 31 26 13 77 29 115 35 37 6 91
20 120 31 42 17 94 23 272 34 121 7 258 11 305 8 47 -2 157 -8 245 -13z"/>
<path d="M21360 25163 c-24 -9 -89 -62 -166 -132 -38 -36 -114 -106 -168 -156
-55 -49 -117 -107 -138 -127 -22 -21 -43 -38 -47 -38 -4 0 -12 -8 -17 -18 -5
-10 -51 -57 -101 -104 -125 -116 -210 -219 -224 -271 -6 -23 -20 -58 -32 -77
-19 -31 -22 -49 -22 -150 0 -89 4 -122 17 -147 29 -53 25 -83 -18 -140 -36
-49 -42 -53 -81 -53 -33 0 -50 7 -85 36 -23 20 -317 310 -652 645 -334 335
-616 614 -626 619 -32 17 -105 12 -123 -8 -49 -54 -69 -115 -79 -237 -10 -129
-3 -366 13 -428 5 -20 18 -52 29 -70 10 -17 22 -53 25 -80 5 -29 18 -61 35
-83 16 -19 31 -48 35 -64 3 -16 13 -34 21 -41 9 -7 26 -34 40 -60 13 -26 28
-51 34 -54 6 -4 22 -23 35 -43 39 -61 225 -242 248 -242 7 0 31 -13 53 -30 21
-16 46 -30 55 -30 8 0 36 -14 62 -31 25 -16 63 -33 84 -36 21 -3 61 -18 89
-34 28 -16 59 -29 67 -29 40 0 121 -24 138 -41 10 -10 19 -33 19 -50 0 -33 -5
-38 -128 -149 -139 -125 -328 -321 -392 -406 -19 -25 -52 -66 -72 -91 -21 -24
-38 -49 -38 -55 0 -6 -11 -26 -25 -44 -17 -22 -29 -59 -39 -117 -21 -118 -6
-179 61 -245 l46 -47 116 0 c114 0 117 1 165 33 27 17 56 32 65 32 8 0 29 13
45 29 17 17 78 70 136 119 161 137 415 392 461 464 37 57 116 44 151 -25 11
-23 29 -51 40 -62 10 -11 61 -69 112 -130 98 -116 196 -213 336 -332 114 -97
146 -123 155 -123 3 0 30 -15 58 -34 29 -19 67 -37 86 -41 18 -4 52 -16 75
-26 55 -25 78 -24 150 8 72 31 95 50 148 122 57 75 57 126 4 235 -88 179 -158
264 -486 591 -261 259 -268 266 -302 288 -24 15 -28 24 -28 66 0 49 13 70 54
85 10 3 57 -3 105 -14 111 -27 181 -27 255 -1 33 12 66 21 75 21 36 0 158 88
233 166 34 37 77 81 93 98 31 31 240 256 325 350 25 28 64 70 88 94 23 24 42
47 42 51 0 4 11 13 23 20 24 13 67 88 67 118 0 28 -51 146 -76 176 -13 16 -24
33 -24 37 0 5 -13 24 -29 42 -16 18 -62 71 -102 117 -41 47 -124 126 -184 178
-158 133 -170 142 -207 155 -18 6 -49 22 -68 35 -34 22 -60 27 -90 16z m97
-249 c10 -27 -47 -116 -108 -169 -32 -27 -61 -58 -64 -67 -3 -9 -15 -20 -26
-23 -11 -4 -27 -18 -37 -33 -9 -15 -35 -42 -56 -62 -124 -112 -176 -179 -176
-227 0 -10 11 -35 25 -56 22 -32 31 -37 64 -37 37 0 49 10 292 251 226 224
256 250 279 244 37 -9 52 -34 47 -78 -5 -34 -27 -60 -202 -233 -255 -253 -275
-276 -275 -320 0 -52 14 -71 60 -79 78 -13 88 -6 320 226 214 214 220 219 260
219 45 0 62 -20 42 -49 -7 -9 -17 -27 -23 -41 -6 -14 -25 -39 -42 -56 -18 -17
-61 -63 -97 -103 -80 -89 -94 -104 -250 -271 -132 -142 -201 -210 -212 -210
-3 0 -20 -12 -37 -26 -18 -14 -48 -30 -69 -35 -41 -10 -474 0 -492 11 -13 8
-25 431 -15 511 8 56 29 84 186 239 223 220 455 430 519 469 42 25 78 27 87 5z
m-2400 -211 c26 -12 211 -190 560 -538 593 -590 580 -578 622 -599 17 -9 35
-25 41 -35 5 -11 20 -23 32 -26 13 -4 35 -19 50 -34 14 -14 45 -39 68 -56 23
-16 78 -61 123 -100 45 -38 108 -92 140 -118 152 -128 523 -513 625 -648 18
-24 46 -61 61 -81 53 -70 49 -150 -8 -163 -32 -7 -106 9 -116 25 -4 6 -25 20
-48 31 -61 31 -140 97 -282 236 -52 50 -101 95 -109 100 -7 4 -43 44 -80 88
-138 169 -168 208 -205 277 -12 20 -25 40 -31 43 -6 4 -22 27 -36 53 -25 47
-47 81 -101 156 -43 59 -145 166 -158 166 -7 0 -32 13 -56 30 -24 16 -53 30
-64 30 -11 0 -45 12 -75 26 -30 15 -84 33 -119 40 -35 8 -78 23 -96 34 -17 11
-56 25 -86 31 -47 10 -118 40 -199 84 -14 8 -46 25 -71 39 -49 26 -185 157
-226 216 -56 82 -73 106 -91 130 -11 14 -24 42 -30 63 -6 20 -22 51 -36 68
-15 18 -26 43 -26 60 0 16 -13 71 -30 121 -31 95 -39 192 -20 242 11 31 24 32
77 9z m1149 -1519 c26 -44 26 -45 8 -70 -11 -15 -26 -37 -35 -50 -8 -13 -26
-34 -40 -47 -13 -13 -53 -57 -89 -98 -93 -107 -315 -323 -400 -389 -14 -11
-45 -37 -70 -58 -27 -23 -73 -49 -114 -63 -67 -23 -68 -23 -82 -4 -23 31 -16
76 19 126 70 101 148 197 214 264 37 39 75 79 83 90 24 33 255 244 359 328 59
47 108 37 147 -29z"/>
<path d="M19687 18830 c-15 -5 -42 -23 -59 -42 -58 -62 -77 -142 -54 -232 12
-47 25 -67 61 -101 45 -43 46 -43 138 -50 158 -11 1118 -1 1149 12 14 7 49 39
77 73 l51 61 0 74 c0 69 -2 75 -35 115 -19 23 -39 49 -43 57 -23 40 -63 42
-672 42 -322 -1 -597 -4 -613 -9z"/>
<path d="M11250 16271 c-113 -35 -154 -111 -115 -209 30 -75 19 -73 611 -72
421 0 530 -2 561 -13 21 -8 56 -20 78 -27 53 -17 125 -72 208 -158 55 -58 67
-76 67 -104 0 -18 9 -46 20 -63 39 -59 17 -278 -34 -345 -7 -8 -18 -28 -26
-43 -24 -49 -130 -157 -153 -157 -11 0 -29 -8 -39 -17 -10 -9 -49 -26 -86 -36
-61 -18 -113 -20 -608 -26 -523 -6 -543 -7 -564 -26 -12 -11 -31 -37 -41 -58
-19 -35 -20 -65 -20 -602 0 -609 0 -604 54 -653 18 -17 41 -25 85 -29 59 -6
61 -5 103 35 l44 41 3 499 c2 388 6 503 16 511 8 7 177 11 497 13 442 3 487 5
512 21 14 9 36 17 48 17 30 0 168 66 175 84 3 7 30 31 61 52 30 21 66 54 78
74 13 19 39 53 59 75 20 22 36 47 36 54 0 8 12 32 26 52 26 38 39 75 54 159
30 165 31 173 20 228 -5 30 -10 74 -10 97 0 22 -9 58 -20 80 -11 22 -20 45
-20 52 0 18 -40 93 -67 126 -13 16 -23 35 -23 43 0 8 -37 51 -83 97 -70 69
-100 90 -193 136 -60 30 -131 58 -159 63 -27 5 -79 14 -115 20 -77 12 -1003
20 -1040 9z"/>
<path d="M18390 16259 c-19 -10 -39 -19 -45 -19 -20 0 -55 -78 -55 -125 0 -39
5 -52 39 -88 l40 -42 823 0 c777 0 825 1 851 18 43 28 67 75 67 132 0 63 -17
88 -80 120 l-49 25 -778 -1 c-751 0 -779 -1 -813 -20z"/>
<path d="M24413 16255 c-17 -7 -43 -31 -58 -53 l-25 -39 0 -1196 c0 -657 2
-1213 6 -1235 4 -26 17 -51 36 -69 26 -25 36 -28 100 -28 66 0 71 2 94 30 13
17 29 46 34 67 7 23 9 459 8 1246 -3 1052 -5 1211 -18 1227 -25 30 -88 65
-117 65 -16 -1 -42 -7 -60 -15z"/>
<path d="M20787 16248 c-28 -8 -49 -24 -78 -60 -36 -46 -39 -54 -39 -115 0
-88 33 -142 107 -178 55 -26 146 -35 159 -14 3 6 22 17 40 25 50 21 74 75 74
166 0 62 -4 77 -27 111 -48 70 -132 93 -236 65z"/>
<path d="M29233 16251 c-52 -9 -76 -30 -92 -79 -10 -31 -11 -935 -2 -1872 0
-50 31 -163 62 -225 10 -22 19 -47 19 -56 0 -9 7 -23 16 -30 9 -8 25 -32 35
-54 9 -22 54 -77 98 -122 72 -74 94 -88 213 -147 115 -58 139 -66 188 -66 47
0 60 4 87 29 17 16 37 46 43 68 11 35 9 46 -10 92 -22 51 -26 53 -117 96 -90
42 -112 57 -201 132 -44 37 -132 198 -132 241 0 16 -7 46 -15 65 -13 31 -15
111 -15 504 0 357 3 474 13 493 l13 25 189 5 c117 3 198 9 210 17 36 20 57 51
61 90 7 51 -22 96 -78 123 -39 19 -58 21 -216 19 -94 -1 -175 1 -180 5 -4 4
-8 130 -9 279 -1 150 -4 284 -7 299 -6 32 -70 79 -106 77 -14 -1 -44 -5 -67
-8z"/>
<path d="M17025 15645 c-24 -7 -94 -25 -140 -35 -71 -17 -107 -31 -130 -50
-11 -10 -31 -20 -45 -24 -14 -3 -51 -27 -82 -53 -32 -27 -72 -59 -89 -72 -17
-13 -42 -42 -56 -64 -13 -21 -42 -58 -63 -81 -20 -22 -41 -52 -45 -66 -4 -14
-14 -33 -22 -42 -8 -9 -17 -36 -20 -60 -4 -23 -15 -56 -25 -73 -10 -16 -18
-44 -18 -61 0 -17 -7 -48 -15 -67 -13 -31 -15 -122 -15 -605 l0 -568 49 -48
c48 -47 51 -49 99 -44 62 6 98 31 123 86 18 41 19 71 19 597 l0 552 26 79 c14
44 31 86 39 94 7 8 16 25 19 37 9 29 144 160 213 205 31 20 70 40 87 44 17 4
40 13 51 20 14 10 55 14 146 14 114 0 132 -2 181 -25 29 -14 62 -25 74 -25 11
0 37 -16 57 -35 20 -19 42 -35 49 -35 29 0 178 -182 178 -217 0 -6 9 -30 19
-54 36 -84 42 -168 44 -709 l2 -525 28 -47 c24 -42 32 -48 71 -53 99 -15 152
12 174 91 18 63 16 1009 -3 1134 -13 89 -18 113 -43 213 -6 21 -17 46 -26 56
-9 10 -16 23 -16 30 0 54 -252 341 -300 341 -11 0 -34 16 -51 35 -21 23 -44
37 -68 40 -20 3 -55 15 -79 26 -23 10 -57 19 -75 19 -17 1 -43 7 -57 15 -18
10 -58 14 -140 14 -63 0 -119 -2 -125 -4z"/>
<path d="M22640 15640 c-14 -4 -35 -5 -47 -3 -11 3 -32 -1 -45 -8 -12 -7 -39
-16 -58 -20 -51 -11 -140 -45 -153 -58 -6 -6 -19 -11 -28 -11 -9 0 -22 -7 -30
-16 -7 -8 -35 -27 -61 -40 -65 -33 -239 -202 -280 -272 -69 -118 -90 -161
-130 -277 l-41 -120 0 -185 c1 -179 5 -215 37 -327 21 -75 110 -249 159 -311
23 -29 52 -68 65 -85 13 -18 31 -36 40 -41 9 -5 52 -40 95 -78 43 -37 85 -68
93 -68 9 0 27 -9 41 -20 14 -11 32 -20 40 -20 8 0 26 -9 40 -20 14 -11 41 -20
59 -20 18 0 55 -8 81 -19 111 -43 436 -35 540 14 28 14 58 25 66 25 55 0 259
133 348 227 102 108 120 158 87 244 -9 27 -93 79 -124 79 -32 0 -83 -37 -182
-131 -57 -55 -109 -99 -116 -99 -7 0 -27 -11 -46 -25 -19 -14 -44 -25 -57 -25
-13 0 -34 -7 -47 -15 -13 -9 -70 -24 -127 -35 -109 -21 -117 -21 -299 20 -40
9 -116 43 -144 65 -11 8 -28 15 -37 15 -10 0 -62 48 -117 106 -100 106 -161
203 -184 293 -37 145 -49 242 -37 301 5 25 14 74 20 110 12 76 85 234 125 270
14 14 35 42 45 63 11 20 37 48 58 62 22 13 42 29 46 35 10 16 203 111 250 124
22 5 110 10 195 11 l155 0 90 -45 c50 -24 117 -62 150 -84 56 -36 125 -101
125 -117 0 -4 22 -21 50 -39 45 -29 53 -31 105 -25 45 6 60 13 84 41 44 49 49
92 17 146 -37 64 -233 258 -267 265 -15 3 -36 14 -45 24 -9 11 -24 19 -33 19
-9 0 -29 9 -46 20 -16 11 -41 20 -55 20 -14 0 -38 7 -55 16 -74 39 -341 67
-415 44z"/>
<path d="M25427 15523 c-68 -71 -148 -156 -178 -191 -30 -34 -103 -116 -164
-182 -380 -415 -359 -387 -348 -478 l6 -56 270 -276 c148 -151 281 -291 295
-310 15 -19 101 -113 191 -207 178 -187 196 -199 283 -191 69 7 104 42 113
113 5 47 3 60 -19 97 -14 24 -183 205 -377 403 -338 347 -389 404 -404 452 -7
24 8 43 210 264 247 270 413 457 425 480 4 8 10 36 13 63 5 47 3 51 -40 98
-44 46 -48 48 -99 48 l-52 0 -125 -127z"/>
<path d="M27308 15645 c-3 -3 -28 -8 -55 -10 -73 -5 -136 -27 -268 -91 -116
-56 -178 -100 -275 -194 -48 -47 -140 -176 -140 -197 0 -7 -11 -24 -25 -39
-14 -15 -25 -37 -25 -49 0 -13 -7 -28 -15 -35 -8 -7 -15 -20 -15 -29 0 -10 -7
-26 -15 -37 -8 -10 -15 -30 -15 -44 0 -14 -7 -45 -16 -69 -20 -59 -32 -228
-21 -315 5 -39 10 -87 12 -106 4 -44 23 -116 41 -155 7 -16 16 -43 20 -60 4
-16 12 -37 19 -45 7 -8 16 -26 20 -40 4 -14 18 -38 31 -53 13 -15 31 -43 40
-62 21 -45 222 -244 254 -252 14 -3 36 -16 50 -28 34 -31 143 -81 205 -95 28
-6 61 -17 75 -25 24 -12 223 -33 265 -27 11 1 61 6 112 11 55 5 100 15 114 25
13 9 34 16 48 16 34 0 207 86 271 136 30 23 87 75 126 116 59 61 73 82 83 125
12 49 11 55 -11 95 -28 51 -78 73 -145 63 -35 -5 -54 -17 -105 -69 -74 -74
-191 -154 -268 -184 -30 -12 -108 -31 -172 -43 -111 -20 -120 -21 -167 -5 -27
9 -62 16 -78 16 -15 0 -46 12 -68 25 -22 14 -54 25 -71 25 -20 0 -39 9 -55 26
-13 14 -41 35 -62 45 -51 27 -102 80 -162 169 -61 92 -81 129 -100 183 -15 45
-30 125 -24 129 2 2 373 5 823 8 l820 5 33 43 c30 40 33 50 33 112 0 38 -7 95
-16 127 -9 32 -20 76 -24 98 -34 165 -156 376 -283 490 -88 79 -165 135 -186
135 -10 0 -24 6 -30 14 -7 8 -25 18 -41 21 -16 3 -34 13 -41 21 -6 8 -16 14
-21 14 -6 0 -24 6 -41 14 -68 29 -176 49 -302 53 -71 3 -133 2 -137 -2z m327
-314 c21 -11 51 -21 66 -21 15 0 32 -7 40 -16 7 -8 29 -24 49 -34 40 -20 163
-142 212 -211 18 -24 35 -46 39 -49 15 -12 59 -107 59 -128 0 -13 7 -37 16
-54 9 -17 13 -40 10 -54 l-6 -24 -698 2 -697 3 -3 37 c-2 22 5 50 17 74 12 21
21 50 21 63 0 13 8 33 17 44 10 10 27 36 38 58 11 21 60 79 108 128 73 75 104
98 186 140 55 28 111 51 125 51 13 0 28 5 32 11 5 8 54 10 168 6 138 -4 167
-8 201 -26z"/>
<path d="M19123 15610 c-12 -5 -30 -21 -40 -37 -17 -26 -18 -79 -21 -932 -2
-649 0 -913 8 -932 7 -15 23 -38 37 -51 21 -20 35 -23 93 -22 89 0 113 16 134
89 15 49 16 148 13 902 -2 522 -7 866 -14 896 -5 26 -20 59 -33 72 -21 22 -32
25 -89 24 -36 0 -76 -4 -88 -9z"/>
<path d="M13747 15531 c-48 -53 -49 -73 -44 -651 5 -484 13 -616 37 -645 7 -8
16 -36 21 -61 5 -25 22 -66 39 -90 16 -25 33 -56 36 -70 4 -14 61 -81 128
-149 109 -109 132 -127 209 -164 47 -22 88 -45 91 -50 3 -5 27 -12 53 -16 25
-4 58 -14 72 -23 21 -14 54 -17 213 -16 177 0 190 2 218 22 16 12 42 22 57 22
33 0 190 78 238 117 19 15 57 46 85 68 28 22 57 53 64 70 7 16 33 53 58 80 49
55 108 168 108 206 0 14 5 30 11 36 7 7 21 65 32 130 19 106 21 168 24 607 4
483 3 489 -18 533 -12 25 -29 47 -38 50 -9 2 -28 11 -43 19 -39 21 -83 17
-128 -11 -69 -44 -70 -52 -70 -652 0 -504 -1 -524 -20 -560 -11 -21 -20 -52
-20 -69 0 -18 -8 -38 -20 -49 -11 -10 -20 -27 -20 -37 0 -10 -39 -59 -87 -108
-100 -101 -204 -165 -293 -181 -30 -5 -76 -14 -101 -20 -56 -13 -208 12 -249
41 -14 9 -37 21 -50 25 -14 4 -32 13 -40 20 -8 8 -27 17 -43 20 -31 8 -137
119 -161 169 -9 18 -22 38 -29 45 -15 12 -35 57 -63 141 -17 50 -19 108 -24
607 l-5 552 -40 41 c-37 37 -43 40 -96 40 -53 0 -59 -2 -92 -39z"/>
<path d="M20801 15550 c-51 -28 -62 -43 -72 -92 -13 -67 -12 -1699 1 -1734 14
-36 46 -71 82 -90 42 -22 116 -4 151 38 16 18 33 43 38 56 5 14 9 376 9 860
-1 951 2 916 -75 959 -48 27 -89 28 -134 3z"/>
<path d="M12351 14412 c-34 -34 -41 -48 -41 -80 0 -45 47 -147 85 -182 14 -13
25 -33 25 -46 0 -12 7 -27 15 -34 9 -7 33 -50 55 -94 21 -45 48 -90 60 -101
12 -11 39 -56 60 -100 53 -113 94 -145 182 -145 35 0 47 6 84 44 24 24 44 52
44 63 0 40 -51 168 -79 198 -16 16 -45 65 -65 107 -20 43 -45 83 -54 90 -10 7
-33 45 -52 83 -18 39 -48 87 -67 108 -18 20 -33 45 -33 55 0 36 -42 62 -113
69 l-66 6 -40 -41z"/>
<path d="M17714 12565 c-12 -30 -14 -116 -12 -561 3 -512 4 -526 23 -540 28
-21 69 -14 73 11 11 74 27 86 69 51 16 -13 39 -27 53 -31 14 -4 33 -14 42 -22
18 -16 143 -36 218 -36 61 0 136 23 185 54 71 47 133 108 140 138 3 17 13 35
20 41 8 7 17 28 20 49 3 20 13 59 22 88 13 43 14 62 5 110 -23 121 -32 153
-58 195 -37 59 -128 148 -152 148 -10 0 -31 9 -45 20 -14 11 -31 20 -39 20 -7
0 -34 7 -59 17 -45 15 -51 15 -148 -5 -98 -21 -130 -36 -228 -107 -10 -7 -18
-5 -29 10 -12 16 -15 51 -13 182 2 145 0 165 -16 183 -28 31 -54 25 -71 -15z
m477 -354 c100 -36 157 -70 186 -112 15 -23 37 -51 49 -65 28 -32 50 -149 35
-187 -6 -16 -11 -43 -11 -61 0 -18 -8 -44 -19 -57 -10 -13 -22 -37 -28 -54 -6
-20 -28 -41 -69 -67 -88 -56 -102 -61 -190 -61 -72 -1 -89 3 -147 31 -108 54
-170 146 -183 274 -5 55 -3 80 16 138 19 60 31 78 80 123 61 57 113 87 152 87
17 1 63 19 73 30 1 0 25 -9 56 -19z"/>
<path d="M18935 12584 c-8 -9 -22 -29 -31 -45 -18 -37 -7 -61 37 -79 28 -12
36 -11 68 6 46 24 48 41 15 92 -30 46 -60 54 -89 26z"/>
<path d="M19425 12570 c-13 -25 -15 -103 -15 -555 0 -344 4 -533 10 -546 14
-25 54 -25 80 1 19 19 20 33 20 553 l0 534 -23 21 c-32 30 -54 28 -72 -8z"/>
<path d="M24173 12563 c-15 -22 -19 -56 -23 -183 -5 -151 -6 -155 -27 -158
-15 -2 -39 10 -67 33 -33 27 -59 39 -98 45 -29 4 -67 14 -85 21 -33 13 -82 7
-183 -23 -83 -25 -210 -123 -210 -162 0 -7 -9 -21 -20 -31 -11 -10 -20 -25
-20 -34 0 -9 -8 -28 -17 -41 -15 -21 -18 -47 -18 -160 1 -121 3 -139 23 -175
40 -70 82 -124 120 -152 20 -16 49 -40 63 -55 14 -15 37 -29 50 -32 13 -2 49
-10 79 -16 31 -7 78 -10 105 -6 150 17 148 17 209 68 32 27 64 47 70 45 6 -2
17 -17 24 -33 24 -54 29 -59 58 -62 62 -5 59 -35 62 565 3 512 2 548 -14 560
-29 21 -62 15 -81 -14z m-297 -354 c3 -5 20 -9 37 -9 28 0 65 -19 144 -75 12
-8 38 -45 58 -82 l37 -68 -5 -122 -5 -122 -37 -38 c-20 -21 -50 -52 -67 -70
-17 -17 -52 -42 -77 -54 -40 -21 -59 -23 -144 -22 -104 3 -120 7 -164 51 -15
16 -35 33 -43 38 -29 17 -80 92 -80 116 0 13 -5 29 -10 34 -6 6 -11 45 -12 87
0 70 3 82 43 162 38 76 51 92 97 121 28 19 71 37 95 40 23 4 53 12 66 19 25
13 57 10 67 -6z"/>
<path d="M15159 12325 c-3 -2 -40 -11 -83 -20 -76 -14 -105 -31 -174 -97 -29
-29 -82 -109 -82 -126 0 -9 -7 -49 -15 -87 -19 -89 -21 -471 -3 -510 16 -36
53 -43 83 -15 l24 23 3 276 3 276 36 50 c19 28 45 55 56 60 11 6 27 18 37 28
10 9 29 17 42 17 14 0 38 7 54 15 26 13 34 13 93 -9 35 -13 75 -34 88 -47 38
-36 79 -102 79 -125 0 -12 7 -38 15 -57 12 -29 15 -85 15 -271 0 -227 1 -236
20 -246 26 -14 57 -5 70 20 6 12 11 125 13 277 l2 258 30 59 c22 43 43 67 81
92 28 19 58 34 66 34 9 0 31 7 51 15 32 13 40 13 93 -6 100 -35 164 -114 190
-236 11 -49 15 -125 13 -273 -2 -256 -4 -238 27 -246 18 -5 32 0 50 17 l24 22
0 238 c0 227 -1 242 -25 315 -31 95 -49 125 -117 192 -47 46 -61 54 -111 62
-31 5 -66 14 -78 21 -57 30 -206 -19 -287 -95 -27 -25 -58 -46 -68 -46 -11 0
-42 22 -68 49 -38 38 -65 55 -121 75 -69 24 -115 32 -126 21z"/>
<path d="M16850 12321 c-19 -4 -45 -13 -57 -19 -12 -7 -31 -12 -43 -12 -11 0
-43 -18 -71 -40 -28 -22 -54 -40 -58 -40 -9 0 -91 -125 -91 -139 0 -7 -9 -24
-20 -39 -18 -24 -21 -44 -22 -133 0 -58 4 -121 10 -140 6 -19 14 -46 16 -60 7
-35 70 -112 150 -182 72 -64 104 -75 239 -84 71 -5 144 7 202 33 51 23 136
100 178 161 42 62 49 81 59 149 22 161 9 242 -57 342 -55 86 -84 114 -148 145
-131 64 -194 76 -287 58z m145 -121 c32 0 123 -51 156 -87 70 -76 99 -184 84
-313 -6 -50 -14 -70 -39 -99 -17 -20 -36 -45 -42 -56 -6 -11 -32 -35 -58 -53
-63 -44 -134 -56 -241 -41 -74 11 -84 16 -132 58 -39 34 -63 68 -94 131 -40
82 -41 87 -35 154 9 92 43 163 112 231 52 50 99 75 145 75 9 0 29 7 45 15 25
13 31 13 51 0 12 -8 34 -15 48 -15z"/>
<path d="M20210 12321 c-64 -13 -164 -71 -227 -134 -35 -34 -63 -68 -63 -76 0
-8 -15 -47 -34 -85 l-33 -71 8 -107 c7 -92 12 -115 42 -175 37 -72 141 -183
172 -183 9 0 28 -9 41 -19 28 -22 173 -47 225 -38 91 15 128 26 170 51 56 32
129 108 129 134 0 23 -30 52 -54 52 -18 0 -73 -37 -116 -78 -37 -36 -65 -44
-166 -45 -83 -1 -96 1 -155 30 -95 47 -159 124 -159 193 0 68 -18 64 377 70
l358 5 3 40 c2 22 -4 65 -13 95 -49 157 -110 238 -212 279 -18 7 -38 19 -44
27 -6 8 -28 14 -48 14 -21 0 -46 7 -57 15 -20 15 -84 18 -144 6z m137 -112
c75 -17 129 -48 178 -100 51 -55 91 -129 82 -153 -12 -31 -58 -36 -321 -36
-308 0 -302 -2 -292 82 6 48 13 60 54 100 68 65 102 86 168 102 76 18 75 18
131 5z"/>
<path d="M21925 12321 c-16 -4 -64 -24 -105 -43 -103 -49 -190 -145 -226 -250
-22 -64 -25 -86 -21 -173 4 -92 7 -105 41 -170 36 -68 148 -195 172 -195 7 0
36 -12 65 -27 44 -24 68 -29 146 -31 52 -2 99 0 106 6 7 5 28 12 48 16 21 4
42 13 49 21 7 8 18 15 25 15 7 0 38 20 69 45 61 50 126 161 126 215 0 16 7 48
16 71 18 43 18 41 -15 191 -6 26 -18 62 -27 80 -21 43 -144 168 -164 168 -9 0
-27 8 -40 18 -54 37 -196 61 -265 43z m150 -116 c96 -34 147 -69 190 -130 47
-68 60 -121 57 -230 -2 -89 -46 -184 -105 -226 -77 -56 -125 -73 -208 -73
-133 0 -240 68 -294 188 -49 109 -51 163 -10 279 28 78 160 187 227 187 12 0
30 5 38 10 21 14 58 12 105 -5z"/>
<path d="M24985 12323 c-91 -22 -180 -68 -222 -114 -87 -98 -102 -119 -122
-178 -16 -49 -21 -89 -21 -164 0 -98 1 -100 45 -187 48 -93 146 -200 182 -200
10 0 27 -6 38 -13 53 -36 200 -49 274 -26 74 24 147 65 193 108 40 37 47 48
41 70 -3 14 -10 32 -16 39 -16 21 -62 14 -87 -13 -34 -37 -123 -82 -195 -100
-55 -14 -65 -14 -104 0 -24 8 -54 15 -66 15 -15 0 -42 20 -77 55 -68 72 -109
141 -106 180 l3 30 345 5 c315 5 348 7 374 23 27 18 28 22 22 70 -4 28 -11 58
-17 68 -5 10 -9 31 -9 48 0 21 -16 50 -58 103 -68 85 -88 103 -122 113 -14 4
-36 16 -49 26 -13 11 -39 19 -58 19 -18 0 -50 7 -70 15 -35 15 -78 18 -118 8z
m120 -113 c3 -5 17 -10 29 -10 13 0 34 -8 47 -18 13 -11 35 -22 49 -25 14 -3
48 -34 78 -69 41 -50 52 -70 52 -98 0 -64 11 -62 -305 -62 -275 0 -289 1 -308
21 -19 19 -19 21 -4 45 10 14 17 31 17 37 0 40 163 169 215 169 11 0 27 5 35
10 20 13 87 13 95 0z"/>
<path d="M26108 12302 c-26 -9 -53 -23 -60 -29 -6 -7 -20 -13 -31 -13 -26 0
-127 -98 -144 -140 -8 -19 -21 -42 -28 -50 -7 -8 -15 -28 -18 -45 -3 -16 -11
-50 -18 -75 -13 -47 -24 -407 -14 -447 8 -35 50 -58 79 -45 24 11 24 11 29
239 5 232 15 301 49 340 8 10 19 28 22 40 11 35 80 89 137 108 81 25 124 86
87 123 -15 15 -32 14 -90 -6z"/>
<path d="M23067 12299 c-45 -9 -63 -20 -180 -110 -38 -29 -96 -150 -110 -229
-6 -36 -11 -158 -11 -271 -1 -224 2 -239 54 -239 57 0 60 13 60 277 l0 241 37
72 c31 60 47 78 96 111 32 21 68 41 80 45 12 3 37 17 54 32 30 25 32 29 20 52
-14 29 -32 32 -100 19z"/>
<path d="M18937 12272 c-15 -17 -17 -59 -17 -399 l0 -380 23 -21 c13 -12 30
-22 38 -22 38 0 39 14 39 415 0 367 -1 393 -18 408 -24 22 -45 21 -65 -1z"/>
</g>
</svg>
