<?xml version="1.0" encoding="UTF-8" standalone="no"?>
<!DOCTYPE svg PUBLIC "-//W3C//DTD SVG 1.1//EN" "http://www.w3.org/Graphics/SVG/1.1/DTD/svg11.dtd">
<!-- Created with Vectornator (http://vectornator.io/) -->
<svg height="100%" stroke-miterlimit="10" style="fill-rule:nonzero;clip-rule:evenodd;stroke-linecap:round;stroke-linejoin:round;" version="1.1" viewBox="0 0 3370.82 2384.24" width="100%" xml:space="preserve" xmlns="http://www.w3.org/2000/svg" xmlns:vectornator="http://vectornator.io" xmlns:xlink="http://www.w3.org/1999/xlink">
<defs/>
<g id="レイヤー-1" vectornator:layerName="レイヤー 1">
<g opacity="1">
<path d="M534.594 1732.78C528.737 1732.29 522.877 1735.25 519.969 1740.78C516.092 1748.15 518.91 1757.28 526.281 1761.16C626.031 1813.64 725.803 1866.1 825.5 1918.69C971.292 1995.58 1117.06 2072.56 1262.88 2149.41C1349.15 2194.87 1435.45 2240.27 1521.75 2285.69C1529.54 2289.78 1539.16 2286.79 1543.25 2279C1547.35 2271.21 1544.35 2261.56 1536.56 2257.47C1450.24 2212.1 1363.94 2166.7 1277.59 2121.38C1131.65 2044.77 985.656 1968.31 839.688 1891.75C739.869 1839.4 640.11 1786.92 540.344 1734.47C538.501 1733.5 536.546 1732.95 534.594 1732.78Z" fill="#000000" stroke="none"/>
</g>
<g opacity="1">
<path d="M1816.59 1554.84C1810.39 1554.93 1804.55 1558.67 1802.06 1564.78C1777.33 1625.57 1752.56 1686.35 1727.88 1747.16C1686.11 1850.03 1644.47 1952.95 1602.75 2055.84C1574.2 2126.27 1545.53 2196.65 1516.88 2267.03C1516.09 2268.96 1515.72 2270.95 1515.75 2272.91C1515.83 2278.78 1519.37 2284.33 1525.16 2286.69C1527.08 2287.47 1529.07 2287.84 1531.03 2287.81C1536.91 2287.73 1542.46 2284.19 1544.81 2278.41C1573.5 2208.04 1602.15 2137.67 1630.94 2067.34C1673 1964.59 1715.17 1861.86 1757.19 1759.09C1782.02 1698.35 1806.77 1637.58 1831.56 1576.81C1832.39 1574.78 1832.78 1572.66 1832.75 1570.59C1832.67 1564.39 1828.92 1558.52 1822.81 1556.03C1820.78 1555.2 1818.66 1554.82 1816.59 1554.84Z" fill="#000000" stroke="none"/>
</g>
<g opacity="1">
<path d="M2525.44 1988.53C2524.38 1988.6 2523.31 1988.78 2522.25 1989.06C2436.44 2012.14 2350.64 2035.18 2264.84 2058.31C2119.84 2097.41 1974.87 2136.63 1829.88 2175.78C1730.72 2202.55 1631.52 2229.21 1532.34 2255.88C1524.3 2258.04 1519.56 2266.3 1521.72 2274.34C1523.88 2282.39 1532.14 2287.16 1540.19 2285C1639.38 2258.37 1738.56 2231.71 1837.78 2205.19C1982.87 2166.41 2127.99 2127.7 2273.06 2088.88C2358.9 2065.9 2444.71 2042.84 2530.53 2019.81C2539.03 2017.53 2544.06 2008.81 2541.78 2000.31C2539.78 1992.88 2532.83 1988.08 2525.44 1988.53Z" fill="#000000" stroke="none"/>
</g>
<g opacity="1">
<path d="M2752.12 1308.91C2751.07 1308.96 2750 1309.13 2748.94 1309.41C2667.5 1330.53 2586.05 1351.58 2504.62 1372.75C2367 1408.53 2229.39 1444.45 2091.78 1480.28C1997.68 1504.78 1903.54 1529.14 1809.41 1553.53C1801.34 1555.62 1796.51 1563.84 1798.59 1571.91C1800.68 1579.97 1808.91 1584.84 1816.97 1582.75C1911.11 1558.39 2005.24 1534 2099.41 1509.75C2237.12 1474.29 2374.87 1438.91 2512.56 1403.41C2594.03 1382.4 2675.45 1361.28 2756.91 1340.22C2765.42 1338.01 2770.55 1329.33 2768.34 1320.81C2766.41 1313.36 2759.52 1308.52 2752.12 1308.91Z" fill="#000000" stroke="none"/>
</g>
<g opacity="1">
<path d="M2756.16 1315.53C2750.3 1315.98 2745.01 1319.89 2743.03 1325.81C2720.59 1392.83 2698.12 1459.83 2675.59 1526.81C2642.52 1625.17 2609.29 1723.49 2576.22 1821.84C2556.56 1880.31 2537.01 1938.8 2517.41 1997.28C2514.61 2005.62 2519.13 2014.65 2527.47 2017.44C2535.81 2020.23 2544.83 2015.75 2547.62 2007.41C2567.17 1948.9 2586.76 1890.4 2606.25 1831.88C2639.04 1733.42 2671.68 1634.92 2704.47 1536.47C2726.8 1469.42 2749.21 1402.4 2771.62 1335.38C2774.27 1327.48 2769.99 1318.92 2762.09 1316.28C2760.12 1315.62 2758.11 1315.38 2756.16 1315.53Z" fill="#000000" stroke="none"/>
</g>
<g opacity="1">
<path d="M717.75 794.875C712.638 794.772 707.575 797.132 704.406 801.625C702.505 804.321 701.562 807.401 701.5 810.469C701.397 815.581 703.757 820.644 708.25 823.812C802.472 890.22 896.654 956.666 990.906 1023.03C1150.21 1135.2 1309.6 1247.25 1468.94 1359.38C1577.89 1436.05 1686.76 1512.86 1795.66 1589.62C1798.21 1591.43 1801.13 1592.32 1804.03 1592.38C1808.87 1592.47 1813.69 1590.25 1816.69 1586C1818.49 1583.45 1819.38 1580.53 1819.44 1577.62C1819.53 1572.78 1817.32 1567.97 1813.06 1564.97C1704.19 1488.17 1595.31 1411.39 1486.5 1334.5C1327.39 1222.06 1168.3 1109.56 1009.16 997.156C915 930.655 820.811 864.239 726.625 797.781C723.929 795.88 720.817 794.937 717.75 794.875Z" fill="#000000" stroke="none"/>
</g>
<g opacity="1">
<path d="M642.094 1241.16C634.686 1241.03 627.979 1246.11 626.312 1253.62C616.986 1295.82 607.613 1338.01 598.344 1380.22C582.751 1451.23 567.31 1522.27 551.719 1593.28C541.101 1641.64 530.391 1689.97 519.688 1738.31C519.462 1739.33 519.329 1740.34 519.312 1741.34C519.197 1748.36 524.01 1754.73 531.125 1756.31C532.141 1756.54 533.154 1756.64 534.156 1756.66C541.17 1756.77 547.547 1751.96 549.125 1744.84C559.862 1696.51 570.584 1648.19 581.406 1599.88C597.297 1528.93 613.361 1458 629.25 1387.06C638.694 1344.89 648.019 1302.71 657.406 1260.53C657.644 1259.46 657.764 1258.4 657.781 1257.34C657.903 1249.94 652.828 1243.2 645.312 1241.53C644.239 1241.29 643.152 1241.17 642.094 1241.16Z" fill="#000000" stroke="none"/>
</g>
<g opacity="1">
<path d="M639.938 1235.53C635.097 1235.46 630.292 1237.73 627.312 1242C625.525 1244.56 624.638 1247.47 624.594 1250.38C624.52 1255.22 626.763 1260.02 631.031 1263C731.197 1332.95 831.386 1402.88 931.5 1472.91C1078.57 1575.78 1225.54 1678.77 1372.62 1781.62C1459.38 1842.29 1546.19 1902.88 1632.97 1963.5C1635.67 1965.39 1638.78 1966.33 1641.84 1966.38C1646.96 1966.45 1652.01 1964.07 1655.16 1959.56C1657.04 1956.86 1657.98 1953.76 1658.03 1950.69C1658.11 1945.57 1655.73 1940.52 1651.22 1937.38C1564.4 1876.8 1477.59 1816.19 1390.75 1755.66C1243.51 1653.03 1096.16 1550.55 948.906 1447.94C848.668 1378.09 748.499 1308.17 648.312 1238.25C645.751 1236.46 642.842 1235.58 639.938 1235.53Z" fill="#000000" stroke="none"/>
</g>
<g opacity="1">
<path d="M1789.97 524.625C1788.95 524.666 1787.9 524.839 1786.88 525.094C1694.57 547.943 1602.29 570.73 1510 593.625C1353.52 632.443 1197.09 671.442 1040.62 710.281C934.115 736.72 827.563 763.052 721.031 789.406C714.212 791.092 709.726 797.338 710 804.094C710.039 805.059 710.165 806.057 710.406 807.031C712.092 813.85 718.338 818.336 725.094 818.062C726.059 818.023 727.026 817.897 728 817.656C834.539 791.335 941.096 764.986 1047.66 738.75C1204.2 700.207 1360.77 661.815 1517.31 623.25C1609.64 600.504 1701.94 577.666 1794.25 554.875C1802.48 552.84 1807.5 544.544 1805.47 536.312C1803.69 529.11 1797.1 524.336 1789.97 524.625Z" fill="#000000" stroke="none"/>
</g>
<g opacity="1">
<path d="M1798.47 526.562C1794.77 526.93 1791.2 528.708 1788.66 531.812C1783.57 538.022 1784.48 547.193 1790.69 552.281C1886.77 631.042 1982.86 709.78 2078.88 788.625C2219.28 903.923 2359.65 1019.27 2500.09 1134.53C2583.18 1202.73 2666.35 1270.88 2749.47 1339.03C2756.03 1344.41 2765.69 1343.43 2771.06 1336.88C2776.44 1330.32 2775.46 1320.66 2768.91 1315.28C2685.75 1247.17 2602.63 1179.01 2519.44 1110.94C2378.83 995.885 2238.11 880.953 2097.47 765.938C2001.29 687.286 1905.2 608.516 1809.09 529.781C1805.99 527.237 1802.17 526.195 1798.47 526.562Z" fill="#000000" stroke="none"/>
</g>
<g opacity="1">
<path d="M1764.84 1273.62C1760.18 1273.56 1755.56 1275.73 1752.69 1279.84C1750.97 1282.31 1750.13 1285.14 1750.09 1287.94C1750.03 1292.6 1752.19 1297.23 1756.31 1300.09C1766.45 1307.18 1776.59 1314.26 1786.69 1321.41C1801.63 1331.99 1816.49 1342.7 1831.44 1353.28C1840.4 1359.63 1849.41 1365.89 1858.41 1372.19C1861.02 1374 1864.01 1374.9 1866.97 1374.94C1871.9 1375.01 1876.75 1372.69 1879.78 1368.34C1881.6 1365.73 1882.49 1362.77 1882.53 1359.81C1882.6 1354.88 1880.32 1350.03 1875.97 1347C1866.94 1340.75 1857.94 1334.46 1848.88 1328.25C1833.77 1317.9 1818.58 1307.69 1803.47 1297.34C1793.26 1290.36 1783.1 1283.27 1772.94 1276.22C1770.47 1274.5 1767.64 1273.66 1764.84 1273.62Z" fill="#000000" stroke="none"/>
</g>
<g opacity="1">
<path d="M1797.69 1109.94C1795.81 1110.09 1793.93 1110.6 1792.16 1111.53C1785.05 1115.26 1782.31 1124.05 1786.03 1131.16C1794.48 1147.31 1802.91 1163.46 1811.28 1179.66C1823.84 1203.95 1836.27 1228.31 1848.84 1252.59C1856.12 1266.65 1863.46 1280.68 1870.78 1294.72C1874.72 1302.23 1883.99 1305.12 1891.5 1301.19C1899.01 1297.25 1901.93 1287.98 1898 1280.47C1890.63 1266.46 1883.29 1252.43 1875.88 1238.44C1863.07 1214.28 1850.1 1190.22 1837.28 1166.06C1828.74 1149.96 1820.26 1133.8 1811.78 1117.66C1808.99 1112.32 1803.33 1109.47 1797.69 1109.94Z" fill="#000000" stroke="none"/>
</g>
<g opacity="1">
<path d="M2093.88 1016.84C2092.86 1016.92 2091.83 1017.11 2090.81 1017.41C2065.06 1024.85 2039.3 1032.22 2013.56 1039.72C1970.54 1052.25 1927.55 1064.91 1884.53 1077.47C1854.96 1086.1 1825.35 1094.62 1795.75 1103.16C1788.04 1105.38 1783.59 1113.41 1785.81 1121.12C1788.03 1128.84 1796.07 1133.31 1803.78 1131.09C1833.39 1122.59 1863.02 1114.06 1892.66 1105.66C1935.77 1093.43 1978.9 1081.28 2022 1069.03C2047.78 1061.7 2073.54 1054.29 2099.31 1046.91C2107.46 1044.56 2112.16 1036.05 2109.81 1027.91C2107.76 1020.78 2100.99 1016.28 2093.88 1016.84Z" fill="#000000" stroke="none"/>
</g>
<g opacity="1">
<path d="M1857.12 1246.25C1856.11 1246.3 1855.06 1246.46 1854.03 1246.72C1845.8 1248.84 1837.56 1250.92 1829.34 1253.09C1815.81 1256.68 1802.31 1260.38 1788.78 1263.97C1779.6 1266.41 1770.39 1268.77 1761.19 1271.12C1753.41 1273.1 1748.71 1281 1750.69 1288.78C1752.66 1296.56 1760.56 1301.26 1768.34 1299.28C1777.56 1296.96 1786.77 1294.64 1796 1292.41C1809.61 1289.11 1823.24 1285.93 1836.84 1282.62C1845.1 1280.62 1853.35 1278.53 1861.59 1276.47C1869.81 1274.38 1874.77 1266.03 1872.69 1257.81C1870.86 1250.62 1864.26 1245.92 1857.12 1246.25Z" fill="#000000" stroke="none"/>
</g>
<g opacity="1">
<path d="M2181.34 990.844C2180.29 990.932 2179.24 991.128 2178.19 991.438C2167.8 994.517 2157.4 997.552 2147.03 1000.69C2129.96 1005.85 2112.95 1011.17 2095.88 1016.34C2084.29 1019.85 2072.67 1023.26 2061.06 1026.69C2053.07 1029.03 2048.5 1037.41 2050.84 1045.41C2053.19 1053.4 2061.57 1057.97 2069.56 1055.62C2081.18 1052.23 2092.79 1048.84 2104.44 1045.53C2121.6 1040.66 2138.78 1035.91 2155.94 1031.03C2166.35 1028.07 2176.76 1025.02 2187.16 1022C2195.6 1019.52 2200.41 1010.66 2197.94 1002.22C2195.77 994.833 2188.73 990.225 2181.34 990.844Z" fill="#000000" stroke="none"/>
</g>
<g opacity="1">
<path d="M2185.94 987.281C2183.99 987.45 2182.03 987.995 2180.19 988.969C2172.83 992.864 2170.01 1001.98 2173.91 1009.34C2183.02 1026.6 2192.15 1043.86 2201.19 1061.16C2214.56 1086.76 2227.78 1112.46 2241.16 1138.06C2249.18 1153.42 2257.3 1168.73 2265.38 1184.06C2269.49 1191.84 2279.13 1194.8 2286.91 1190.69C2294.68 1186.57 2297.64 1176.93 2293.53 1169.16C2285.4 1153.85 2277.31 1138.53 2269.12 1123.25C2255.48 1097.79 2241.71 1072.4 2228.06 1046.94C2218.85 1029.74 2209.7 1012.49 2200.56 995.25C2197.64 989.728 2191.79 986.774 2185.94 987.281Z" fill="#000000" stroke="none"/>
</g>
<g opacity="1">
<path d="M2367.53 1213.56C2366.47 1213.62 2365.41 1213.78 2364.34 1214.06C2320.86 1225.69 2277.38 1237.29 2233.91 1248.97C2160.77 1268.62 2087.66 1288.41 2014.53 1308.06C1964.73 1321.45 1914.92 1334.76 1865.09 1348.06C1857.05 1350.21 1852.26 1358.48 1854.41 1366.53C1856.55 1374.58 1864.8 1379.36 1872.84 1377.22C1922.68 1363.95 1972.52 1350.65 2022.38 1337.47C2095.59 1318.11 2168.85 1298.89 2242.06 1279.53C2285.58 1268.02 2329.06 1256.41 2372.56 1244.84C2381.06 1242.58 2386.11 1233.88 2383.84 1225.38C2381.86 1217.94 2374.93 1213.13 2367.53 1213.56Z" fill="#000000" stroke="none"/>
</g>
<g opacity="1">
<path d="M2313.56 1114.09C2312.51 1114.14 2311.44 1114.29 2310.38 1114.56C2307.05 1115.43 2303.72 1116.28 2300.41 1117.19C2294.54 1118.79 2288.73 1120.61 2282.88 1122.25C2279.01 1123.34 2275.14 1124.31 2271.25 1125.31C2263.17 1127.35 2258.28 1135.55 2260.31 1143.62C2262.35 1151.7 2270.55 1156.6 2278.62 1154.56C2282.52 1153.6 2286.43 1152.63 2290.34 1151.75C2296.28 1150.42 2302.23 1149.25 2308.16 1147.88C2311.5 1147.1 2314.82 1146.28 2318.16 1145.47C2325.62 1143.59 2330.52 1136.71 2330.19 1129.31C2330.14 1128.26 2329.99 1127.19 2329.72 1126.12C2327.84 1118.66 2320.96 1113.76 2313.56 1114.09Z" fill="#000000" stroke="none"/>
</g>
<g opacity="1">
<path d="M2316.47 1112.94C2314.52 1113.14 2312.57 1113.74 2310.75 1114.75C2303.46 1118.78 2300.81 1127.96 2304.84 1135.25C2310.21 1145 2315.62 1154.74 2320.91 1164.53C2328.7 1178.96 2336.35 1193.45 2344.16 1207.88C2348.89 1216.63 2353.74 1225.36 2358.53 1234.09C2362.79 1241.79 2372.46 1244.57 2380.16 1240.31C2387.86 1236.06 2390.66 1226.39 2386.41 1218.69C2381.56 1209.99 2376.74 1201.26 2371.84 1192.59C2363.78 1178.31 2355.6 1164.09 2347.53 1149.81C2342.05 1140.12 2336.65 1130.39 2331.25 1120.66C2328.23 1115.19 2322.31 1112.32 2316.47 1112.94Z" fill="#000000" stroke="none"/>
</g>
<g opacity="0.863462">
<path d="M727.25 793.375C725.291 793.368 723.296 793.758 721.375 794.562C712.344 798.342 703.459 802.431 694.844 807.094C681.164 814.497 668.161 823.192 656.188 833.125C644.64 842.704 634.095 853.462 624.812 865.25C618.072 873.81 612.01 882.917 606.656 892.406C602.522 899.735 598.803 907.293 595.5 915.031C579.806 951.797 573.783 991.579 573.781 1031.47C573.78 1055.4 575.937 1079.38 579.469 1102.75C581.234 1114.43 583.445 1126.05 585.938 1137.59C589.308 1153.2 593.341 1168.66 597.875 1183.97C602.292 1198.88 607.221 1213.67 612.656 1228.25C615.999 1237.21 619.445 1246.16 623.406 1254.88C626.141 1260.88 632.139 1264.39 638.344 1264.22C640.412 1264.16 642.499 1263.69 644.5 1262.78C652.506 1259.13 656.053 1249.69 652.406 1241.69C648.492 1233.19 645.163 1224.36 641.906 1215.59C636.658 1201.47 631.902 1187.15 627.656 1172.69C623.336 1157.97 619.585 1143.14 616.312 1128.16C613.614 1115.8 611.39 1103.33 609.594 1090.81C608.209 1081.16 607.094 1071.47 606.312 1061.75C601.995 1008.05 607.374 950.7 635.344 903.5C639.615 896.292 644.37 889.366 649.594 882.812C657.304 873.14 665.999 864.263 675.5 856.344C692.781 841.94 712.344 831.049 733.031 822.375C738.793 819.961 742.261 814.408 742.281 808.531C742.288 806.572 741.898 804.577 741.094 802.656C738.68 796.895 733.127 793.395 727.25 793.375Z" fill="#000000" stroke="none"/>
</g>
</g>
</svg>
